<svg width="24" height="24" viewBox="0 0 24 24" fill="none" xmlns="http://www.w3.org/2000/svg">
    <path fill-rule="evenodd" clip-rule="evenodd" d="M9.84893 3.48197C8.6997 4.07828 7.75517 4.58176 7.75876 4.60319C7.75876 4.65675 10.5205 6.04577 10.6175 6.0422C10.6606 6.0422 10.9838 5.89223 11.3358 5.71369L11.975 5.38875L12.6717 5.74583L13.3685 6.10291L14.5105 5.59229C16.2272 4.82457 16.4067 4.73887 16.378 4.71388C16.3421 4.6746 15.7244 4.34609 14.0508 3.47125C13.2428 3.0499 12.4598 2.63212 12.309 2.55C12.1582 2.4643 12.0145 2.40002 11.9894 2.40002C11.9642 2.40002 10.9982 2.88565 9.84893 3.48197ZM4.80308 6.08148L3.60357 6.69565V9.39515C3.60357 10.8806 3.61793 12.0947 3.63948 12.0947C3.65744 12.0947 4.24642 11.8411 4.95033 11.5305L6.22526 10.9663V8.12039L6.84656 8.45604C7.3278 8.71671 7.80545 8.9738 8.28669 9.23447L9.10552 9.67367L9.46825 9.50942C9.6981 9.40586 9.92435 9.30231 10.1506 9.19876C10.3266 9.11663 10.7575 8.92381 11.1095 8.77027C11.4615 8.61672 11.7847 8.45961 11.8314 8.4239C11.8924 8.37748 11.1454 7.96685 9.06961 6.90633C7.50378 6.10648 6.17139 5.4566 6.11033 5.46017C6.04928 5.46374 5.4603 5.74226 4.80308 6.08148ZM16.5899 6.25288C15.7747 6.62067 15.1067 6.9349 15.1067 6.95275C15.1067 6.9706 15.552 7.23484 16.0943 7.53835C16.6402 7.84187 17.0819 8.1061 17.0819 8.12753C17.0819 8.14895 16.6007 8.38105 16.0117 8.64172C15.4227 8.90596 13.9359 9.57369 12.7041 10.1272L8.58478 11.9804C7.54687 12.4446 6.61312 12.8659 6.50897 12.9124C4.39366 13.8657 3.80827 14.13 3.72926 14.1764C3.65025 14.2228 3.6323 14.4871 3.61793 15.819L3.59998 17.4079L4.6702 17.9507L5.74042 18.4935L7.22724 17.8257C8.04248 17.4579 8.71406 17.1401 8.71406 17.1151C8.71406 17.0901 8.56323 16.9937 8.38007 16.8973C8.19691 16.8009 7.81623 16.5867 7.53251 16.4224C7.25238 16.2582 6.97226 16.1082 6.9112 16.0868C6.85015 16.0653 6.79987 16.0332 6.79987 16.0082C6.79987 15.9868 7.4535 15.6761 8.25437 15.3226C9.80584 14.6335 10.991 14.1014 13.5373 12.9552C14.6757 12.4446 15.8142 11.9304 16.9562 11.4198C17.9582 10.9699 19.1218 10.445 19.542 10.2521L20.307 9.9022L20.3249 8.29536L20.3429 6.68851L19.2583 6.13862C18.6621 5.8351 18.1486 5.58515 18.1234 5.58515C18.0947 5.58515 17.4051 5.88866 16.5899 6.25288ZM20.0196 12.0518C19.858 12.1304 19.542 12.2768 19.3157 12.3767C19.0895 12.4767 18.6585 12.6695 18.3604 12.8052L17.8181 13.0516L17.8074 14.4621C17.8002 15.2369 17.7715 15.8689 17.7427 15.8654C17.6781 15.8547 16.6617 15.3369 15.6382 14.7906C14.8984 14.3978 14.8517 14.3799 14.6793 14.4656C14.5787 14.5156 13.979 14.7834 13.3469 15.0584C12.7148 15.3369 12.1761 15.5797 12.151 15.6047C12.1259 15.6261 13.3972 16.3117 14.981 17.1294L17.8541 18.6149L19.0823 17.9828C19.7575 17.6365 20.3321 17.3187 20.3572 17.2794C20.4183 17.1901 20.4111 11.8983 20.3536 11.9054C20.3285 11.909 20.1777 11.9732 20.0196 12.0518ZM13.2176 18.2614C13.0057 18.3506 12.7903 18.4435 12.5784 18.5363C11.9355 18.8113 12.0612 18.822 11.2962 18.4435C10.7863 18.1899 10.5672 18.115 10.4702 18.1507C10.3984 18.1792 9.78429 18.4542 9.10193 18.7613C8.42317 19.0684 7.84136 19.3219 7.81263 19.3219C7.52533 19.3219 8.00298 19.604 9.83457 20.5217L11.9822 21.6L12.8872 21.1572C13.3828 20.9144 14.3884 20.4252 15.1139 20.0717C15.8429 19.7182 16.4283 19.4219 16.4175 19.4076C16.4067 19.3969 15.7962 19.0862 15.06 18.7148L13.724 18.0435L13.2176 18.2614Z" fill="#1D0A37"/>
</svg>
